<svg width="25" height="24" viewBox="0 0 25 24" fill="none" xmlns="http://www.w3.org/2000/svg">
<path fill-rule="evenodd" clip-rule="evenodd" d="M1.89999 12C1.89999 5.9 6.79999 1 12.9 1C19 1 23.9 5.9 23.9 12C23.9 18.1 19 23 12.9 23C6.79999 23 1.89999 18.1 1.89999 12ZM7.89999 17L14.7 13.8L17.9 7L11.1 10.2L7.89999 17ZM14.4 12C14.4 12.8284 13.7284 13.5 12.9 13.5C12.0716 13.5 11.4 12.8284 11.4 12C11.4 11.1716 12.0716 10.5 12.9 10.5C13.7284 10.5 14.4 11.1716 14.4 12Z" fill="black" fill-opacity="0.95"/>
</svg>
