<svg width="22" height="23" viewBox="0 0 22 23" fill="none" xmlns="http://www.w3.org/2000/svg">
<path fill-rule="evenodd" clip-rule="evenodd" d="M0.800049 0.5H2.30005H20.3H21.8V2V20V22.3081L19.6908 21.3707L15.8 19.6415L11.9093 21.3707L11.3 21.6415L10.6908 21.3707L6.80005 19.6415L2.90926 21.3707L0.800049 22.3081V20V2V0.5ZM3.80005 3.5V17.6919L6.19084 16.6293L6.80005 16.3585L7.40926 16.6293L11.3 18.3585L15.1908 16.6293L15.8 16.3585L16.4093 16.6293L18.8 17.6919V3.5H3.80005ZM10.3 9.5H6.30005V6.5H10.3V9.5ZM6.30005 13.5H16.3V10.5H6.30005V13.5Z" fill="black" fill-opacity="0.32"/>
</svg>
